<svg width="7" height="12" viewBox="0 0 7 12" fill="none" xmlns="http://www.w3.org/2000/svg">
<path d="M6.6198 5.63801L1.0468 0.328006C0.953814 0.239362 0.830272 0.189911 0.701802 0.189911C0.573331 0.189911 0.44979 0.239362 0.356802 0.328006L0.350802 0.334006C0.305567 0.37698 0.269547 0.428706 0.244934 0.486039C0.22032 0.543372 0.207627 0.605113 0.207627 0.667506C0.207627 0.729899 0.22032 0.791641 0.244934 0.848974C0.269547 0.906307 0.305567 0.958033 0.350802 1.00101L5.5988 6.00101L0.350802 10.999C0.305567 11.042 0.269547 11.0937 0.244934 11.151C0.22032 11.2084 0.207627 11.2701 0.207627 11.3325C0.207627 11.3949 0.22032 11.4566 0.244934 11.514C0.269547 11.5713 0.305567 11.623 0.350802 11.666L0.356802 11.672C0.44979 11.7607 0.573331 11.8101 0.701802 11.8101C0.830272 11.8101 0.953814 11.7607 1.0468 11.672L6.6198 6.36201C6.66881 6.31531 6.70783 6.25915 6.73449 6.19692C6.76115 6.1347 6.7749 6.0677 6.7749 6.00001C6.7749 5.93231 6.76115 5.86532 6.73449 5.80309C6.70783 5.74087 6.66881 5.6847 6.6198 5.63801Z" fill="white"/>
</svg>
