<svg width="18" height="18" viewBox="0 0 18 18" fill="none" xmlns="http://www.w3.org/2000/svg">
<path fill-rule="evenodd" clip-rule="evenodd" d="M3.25581 6.55477V5.49419C3.25581 4.03704 3.83466 2.63957 4.86502 1.60921C5.89538 0.57885 7.29285 0 8.75 0C10.2071 0 11.6046 0.57885 12.635 1.60921C13.6653 2.63957 14.2442 4.03704 14.2442 5.49419V6.55477C14.429 6.56779 14.6023 6.58407 14.7667 6.60686C15.4993 6.70453 16.1163 6.91616 16.6063 7.40535C17.0963 7.89535 17.3063 8.51233 17.4056 9.24488C17.5 9.95058 17.5 10.8484 17.5 11.961V12.0506C17.5 13.1633 17.5 14.061 17.4056 14.7667C17.3063 15.4993 17.0963 16.1163 16.6063 16.6063C16.1163 17.0963 15.4993 17.3063 14.7667 17.4056C14.061 17.5 13.1633 17.5 12.0506 17.5H5.44942C4.33674 17.5 3.43895 17.5 2.73326 17.4056C2.0007 17.3063 1.38372 17.0963 0.893721 16.6063C0.403721 16.1163 0.193721 15.4993 0.0952325 14.7667C-1.21289e-08 14.061 0 13.1633 0 12.0506V11.961C0 10.8484 -1.21289e-08 9.95058 0.0952325 9.24488C0.192907 8.51233 0.404535 7.89535 0.893721 7.40535C1.38372 6.91535 2.0007 6.70535 2.73326 6.60686C2.90681 6.58362 3.08109 6.56624 3.25581 6.55477ZM4.47674 5.49419C4.47674 4.36085 4.92696 3.27393 5.72835 2.47254C6.52974 1.67115 7.61666 1.22093 8.75 1.22093C9.88334 1.22093 10.9703 1.67115 11.7716 2.47254C12.573 3.27393 13.0233 4.36085 13.0233 5.49419V6.51407C12.7197 6.51163 12.3949 6.51163 12.0506 6.51163H5.44942C5.10512 6.51163 4.78116 6.51163 4.47674 6.51407V5.49419ZM1.75733 8.26895C1.98279 8.04349 2.2986 7.89698 2.89686 7.81639C3.51058 7.73419 4.32616 7.73256 5.49419 7.73256H12.0058C13.1738 7.73256 13.9886 7.73419 14.604 7.81639C15.2014 7.89698 15.5172 8.0443 15.7427 8.26895C15.9681 8.49442 16.1147 8.81023 16.1952 9.40849C16.2774 10.023 16.2791 10.8378 16.2791 12.0058C16.2791 13.1738 16.2774 13.9886 16.1952 14.604C16.1147 15.2014 15.9673 15.5172 15.7427 15.7427C15.5172 15.9681 15.2014 16.1147 14.6031 16.1952C13.9886 16.2774 13.1738 16.2791 12.0058 16.2791H5.49419C4.32616 16.2791 3.51058 16.2774 2.89605 16.1952C2.2986 16.1147 1.98279 15.9673 1.75733 15.7427C1.53186 15.5172 1.38535 15.2014 1.30477 14.6031C1.22256 13.9886 1.22093 13.1738 1.22093 12.0058C1.22093 10.8378 1.22256 10.0222 1.30477 9.40767C1.38535 8.81023 1.53267 8.49442 1.75733 8.26895Z" fill="#8E91A0"/>
</svg>
