<svg width="16" height="20" viewBox="0 0 16 20" fill="none" xmlns="http://www.w3.org/2000/svg">
<path d="M13.751 11.995C14.0463 11.9951 14.3388 12.0534 14.6116 12.1666C14.8844 12.2797 15.1322 12.4455 15.341 12.6544C15.5497 12.8634 15.7153 13.1114 15.8282 13.3843C15.9411 13.6572 15.9991 13.9497 15.999 14.245V14.82C15.999 15.714 15.679 16.579 15.099 17.258C13.529 19.091 11.142 19.996 7.996 19.996C4.85 19.996 2.464 19.091 0.898 17.256C0.318608 16.5774 0.000207249 15.7143 0 14.822V14.244C0 13.6475 0.236947 13.0755 0.658717 12.6537C1.08049 12.2319 1.65253 11.995 2.249 11.995H13.751ZM13.751 13.495H2.248C2.14947 13.4949 2.05189 13.5142 1.96083 13.5518C1.86978 13.5895 1.78705 13.6447 1.71738 13.7144C1.64771 13.784 1.59247 13.8668 1.55482 13.9578C1.51718 14.0489 1.49787 14.1465 1.498 14.245V14.822C1.498 15.357 1.69 15.875 2.038 16.282C3.291 17.751 5.258 18.496 7.995 18.496C10.734 18.496 12.701 17.751 13.958 16.283C14.3066 15.8753 14.4982 15.3564 14.498 14.82V14.244C14.498 14.0455 14.4192 13.8552 14.279 13.7147C14.1387 13.5743 13.9495 13.4953 13.751 13.495ZM7.996 0C8.65261 -9.78424e-09 9.30279 0.129329 9.90942 0.380602C10.516 0.631876 11.0672 1.00017 11.5315 1.46447C11.9958 1.92876 12.3641 2.47995 12.6154 3.08658C12.8667 3.69321 12.996 4.34339 12.996 5C12.996 5.65661 12.8667 6.30679 12.6154 6.91342C12.3641 7.52004 11.9958 8.07124 11.5315 8.53553C11.0672 8.99983 10.516 9.36812 9.90942 9.6194C9.30279 9.87067 8.65261 10 7.996 10C6.66992 10 5.39815 9.47322 4.46047 8.53553C3.52278 7.59785 2.996 6.32608 2.996 5C2.996 3.67392 3.52278 2.40215 4.46047 1.46447C5.39815 0.526784 6.66992 0 7.996 0ZM7.996 1.5C7.53637 1.5 7.08125 1.59053 6.65661 1.76642C6.23197 1.94231 5.84613 2.20012 5.52113 2.52513C5.19612 2.85013 4.93831 3.23597 4.76242 3.66061C4.58653 4.08525 4.496 4.54037 4.496 5C4.496 5.45963 4.58653 5.91475 4.76242 6.33939C4.93831 6.76403 5.19612 7.14987 5.52113 7.47487C5.84613 7.79988 6.23197 8.05769 6.65661 8.23358C7.08125 8.40947 7.53637 8.5 7.996 8.5C8.92426 8.5 9.8145 8.13125 10.4709 7.47487C11.1273 6.8185 11.496 5.92826 11.496 5C11.496 4.07174 11.1273 3.1815 10.4709 2.52513C9.8145 1.86875 8.92426 1.5 7.996 1.5Z" fill="#8E91A0"/>
</svg>
